<svg xmlns="http://www.w3.org/2000/svg" viewBox="0 0 152.16 140.72"><path d="M30.66 57.76h26.45c2.36 0 4 .56 5.14 2.9 1.59 3.36 3.48 6.59 5.34 9.82a3.77 3.77 0 0 1-.1 4.22c-2.34 3.87-4.56 7.81-6.89 11.68a3 3 0 0 0 0 3.47q13.75 23.65 27.4 47.4c1.45 2.53.93 3.4-2 3.43H75.75a2.89 2.89 0 0 1-2.85-1.65Q59 114.92 44.92 90.85a4.72 4.72 0 0 1 0-5.33c2.24-3.74 4.35-7.57 6.62-11.29 1.07-1.75.51-2-1.28-2.15-2.39-.13-4 .53-5.14 2.82-2.06 4-4.43 7.88-6.74 11.77a2.54 2.54 0 0 0 0 3q8.91 15.19 17.68 30.47 4.89 8.44 9.7 16.93c1.42 2.5.84 3.57-1.93 3.6-3.26 0-6.52-.06-9.77 0a3.67 3.67 0 0 1-3.63-2.1Q38.7 118.19 26.87 97.8c-1.47-2.54-2.92-5.09-4.48-7.58a3.36 3.36 0 0 1-.06-3.94c2.42-4 4.64-8.13 7-12.15.81-1.36 1.08-1.93-1-2.06-2.82-.18-4.47.69-5.73 3.38-1.77 3.79-4.12 7.32-6.26 10.94a3.1 3.1 0 0 0 0 3.53q11.63 20 23.16 40c1.51 2.61 3 5.21 4.45 7.87 1 1.88.45 2.86-1.71 2.91-3.65.08-7.31 0-11 .05-1.54 0-2.22-.85-2.9-2C19.57 123.36 10.84 108 1.73 92.8c-2.14-3.55-2.49-6.08.06-9.42 2.21-2.81 3.58-6.17 5.45-9.22a3.3 3.3 0 0 0 0-3.94C5.32 67.13 3.53 64 1.71 60.79c-1.4-2.43-1.07-3 1.79-3 9.05-.05 18.11-.03 27.16-.03z" fill="#37b7e3"/><path d="M52.86 19.56c9 0 18 .08 26.93 0a4.57 4.57 0 0 1 4.66 2.81c2 3.78 4.26 7.43 6.37 11.15.82 1.45 1.37 1.66 2.4.07 1.4-2.16 1.59-4 0-6.25-2.22-3.4-4.1-7-6.06-10.54a4.29 4.29 0 0 0-4.23-2.39c-16 .06-31.93 0-47.9.05-2.29 0-4.57.48-6.87 0-1.39-.3-1.77-.87-1-2.14 2.08-3.56 4.16-7.12 6.15-10.74C34.15 0 35.53 0 37 0h46.7c2.39 0 4.78.11 7.15 0A4.08 4.08 0 0 1 95 2.38c2.2 4 4.61 7.78 6.76 11.76a3.63 3.63 0 0 0 3.77 2.18c3.49-.11 7-.06 10.49 0 2.81 0 3.16.64 1.76 3.06q-9.07 15.8-18.18 31.56c-3 5.3-6.12 10.58-9.12 15.9a3.29 3.29 0 0 1-3.25 1.93q-6.54-.25-13.08-.46a2.93 2.93 0 0 1-2.6-1.76C69.37 62.68 67 58.91 64.92 55a4.09 4.09 0 0 0-4.16-2.4c-17.47.06-34.95 0-52.42 0H6.43c-1.57-.06-2.27-.6-1.31-2.23q2.9-4.92 5.67-9.92a3.38 3.38 0 0 1 3.31-1.83h55.28a3.6 3.6 0 0 1 3.47 2c2.27 4 4.65 7.94 6.87 12 .76 1.4 1.2 1.7 2.22.23 1.41-2 2-3.81.37-6.19a104.37 104.37 0 0 1-6.39-10.86c-1-1.91-2.3-2.27-4.21-2.27q-26.22.07-52.43 0c-1.14 0-2.68.58-3.33-.56s.62-2.3 1.22-3.37c1.47-2.62 3.08-5.19 4.48-7.85a3.75 3.75 0 0 1 3.81-2.19c9.13.04 18.26 0 27.4 0z" fill="#37b7e3"/><path d="M94.2 93c2.3 0 4.61-.07 6.91 0a3.42 3.42 0 0 0 3.46-2Q116 71.12 127.49 51.24c1.39-2.41 2.75-4.83 4.19-7.21 1.2-2 1.9-2 3-.18 2.12 3.44 4.1 7 6.14 10.46a2 2 0 0 1-.1 2.23q-10.37 17.81-20.69 35.61c-2.31 4-4.68 7.93-6.85 12-1 2-2.3 2.93-4.65 2.84-4.36-.18-8.73 0-13.1-.07-1.9 0-2.1.42-1.26 2.17 1.17 2.46 2.83 3.23 5.46 3.11 4.2-.2 8.42-.09 12.63 0a3.33 3.33 0 0 0 3.25-1.88q10.77-18.8 21.63-37.54c1.91-3.3 3.85-6.57 5.74-9.88.94-1.64 1.86-1.59 2.78-.05 2.06 3.48 4.09 7 6.13 10.47a2.66 2.66 0 0 1-.28 2.91q-8.33 14.31-16.62 28.61c-3.58 6.18-7.2 12.34-10.67 18.58-1.22 2.19-2.7 3.21-5.3 3.09-4.12-.21-8.26 0-12.38-.1a3.85 3.85 0 0 0-3.94 2.36c-1.76 3.29-3.71 6.47-5.55 9.71-.92 1.61-1.59 1.63-2.56 0q-11.94-20.87-24-41.67c-1.35-2.34-2.66-4.7-4-7a2.74 2.74 0 0 1 0-3.12c2.29-3.71 4.55-7.45 6.8-11.19.77-1.27 1.94-1.47 3.29-1.46 4.28 0 8.58-.08 12.86 0a4.32 4.32 0 0 0 4.35-2.55q11.39-19.95 22.91-39.82c1.43-2.47 2.89-4.92 4.32-7.4.82-1.41 1.57-1.4 2.39 0 2.07 3.57 4.11 7.15 6.27 10.67.82 1.34.1 2.24-.49 3.26q-10.44 18-20.88 36.05c-2.11 3.64-4.23 7.27-6.24 11a4.64 4.64 0 0 1-4.74 2.77c-4.37-.17-8.74 0-13.11-.06-1.44 0-2.22-.09-1.27 1.86 1.21 2.49 2.72 3.66 5.53 3.32A49.4 49.4 0 0 1 94.2 93z" fill="#37b7e3"/></svg>