<svg id="Capa_1" data-name="Capa 1" xmlns="http://www.w3.org/2000/svg" xmlns:xlink="http://www.w3.org/1999/xlink" viewBox="0 0 150.67 138.83"><defs><linearGradient id="Degradado_sin_nombre_3" x1="19.58" y1="334.22" x2="95.42" y2="298.21" gradientTransform="matrix(1, 0, 0, -1, 0, 418.67)" gradientUnits="userSpaceOnUse"><stop offset="0" stop-color="#5dc2d9"/><stop offset="1" stop-color="#744e9a"/></linearGradient><linearGradient id="Degradado_sin_nombre_2" x1="27.64" y1="408.04" x2="114.37" y2="344.19" gradientTransform="matrix(1, 0, 0, -1, 0, 418.67)" gradientUnits="userSpaceOnUse"><stop offset="0" stop-color="#5dc2d9"/><stop offset="0.13" stop-color="#54c1dc"/><stop offset="0.34" stop-color="#38bae8"/><stop offset="0.63" stop-color="#5f8ac7"/><stop offset="0.96" stop-color="#70539e"/><stop offset="1" stop-color="#744e9a"/></linearGradient><linearGradient id="Degradado_sin_nombre_3-2" x1="75.08" y1="340.17" x2="156.4" y2="336.13" xlink:href="#Degradado_sin_nombre_3"/></defs><title>logo-origin-color</title><path d="M32.41,57.7H57.47c2.27,0,3.78.57,4.82,2.75,1.52,3.21,3.31,6.24,5,9.26a3.56,3.56,0,0,1-.09,4L60.68,84.75a3,3,0,0,0,0,3.31q13,22.41,25.91,44.82c1.33,2.36.86,3.21-1.89,3.21H75.06a2.73,2.73,0,0,1-2.65-1.51C63.62,119.36,54.82,104.23,45.93,89a4.41,4.41,0,0,1,0-5C48,80.49,50,76.8,52.17,73.31c1-1.71.48-1.9-1.23-2.08-2.26-.1-3.78.47-4.82,2.64-2,3.79-4.16,7.47-6.33,11.16a2.26,2.26,0,0,0,0,2.84c5.58,9.55,11.15,19.19,16.73,28.84,3.12,5.29,6.15,10.68,9.18,16,1.32,2.36.75,3.4-1.8,3.4-3.12,0-6.15-.09-9.27,0a3.43,3.43,0,0,1-3.4-2Q40.16,114.82,28.91,95.53c-1.42-2.37-2.74-4.82-4.25-7.19a3.14,3.14,0,0,1-.1-3.69c2.27-3.78,4.35-7.66,6.62-11.53.76-1.33,1-1.8-.94-2-2.65-.19-4.26.66-5.39,3.22a113.71,113.71,0,0,1-6,10.3,3,3,0,0,0,0,3.31c7.37,12.58,14.66,25.25,21.94,37.83,1.42,2.46,2.83,4.91,4.25,7.47,1,1.79.48,2.74-1.61,2.74-3.49.09-6.9,0-10.4.09-1.42,0-2.08-.85-2.74-1.89-8.42-14.46-16.74-29-25.34-43.4-2-3.4-2.37-5.77.09-8.89,2.08-2.65,3.41-5.86,5.11-8.7a3,3,0,0,0,0-3.69c-1.8-2.93-3.5-5.86-5.2-8.88-1.33-2.27-1-2.84,1.7-2.84C15.3,57.61,23.81,57.7,32.41,57.7Z" fill="url(#Degradado_sin_nombre_3)"/><path d="M53.4,21.58c8.51,0,17,.1,25.44,0a4.32,4.32,0,0,1,4.44,2.65c1.9,3.59,4.07,7,6.06,10.5.75,1.41,1.32,1.6,2.27.09,1.32-2.08,1.51-3.78,0-6-2.08-3.21-3.88-6.62-5.77-9.93a4.2,4.2,0,0,0-4-2.27c-15.13.1-30.17,0-45.3.1-2.17,0-4.35.47-6.52,0-1.33-.28-1.7-.85-.95-2,2-3.4,4-6.71,5.86-10.11.76-1.61,2-1.61,3.41-1.61H82.53c2.27,0,4.54.09,6.81,0a3.94,3.94,0,0,1,4,2.27c2.08,3.78,4.35,7.37,6.43,11.16a3.45,3.45,0,0,0,3.59,2.08q5-.15,9.93,0c2.65,0,3,.56,1.7,2.93-5.67,9.93-11.44,20-17.21,29.88-2.83,5-5.77,10-8.6,15A3.13,3.13,0,0,1,86,68.2c-4.16-.19-8.23-.28-12.39-.47A2.75,2.75,0,0,1,71.18,66c-2.08-3.69-4.25-7.19-6.24-10.88a3.87,3.87,0,0,0-4-2.27c-16.55.1-33.1,0-49.55,0h-2c-1.51-.09-2.17-.57-1.23-2.08l5.39-9.36a3,3,0,0,1,3.12-1.7H69a3.47,3.47,0,0,1,3.31,1.89c2.17,3.78,4.44,7.47,6.52,11.35.76,1.32,1.13,1.6,2.08.18,1.32-1.89,1.89-3.59.38-5.86a99.58,99.58,0,0,1-6-10.3c-1-1.8-2.18-2.18-4-2.18H21.73c-1,0-2.56.57-3.12-.57s.56-2.17,1.13-3.21c1.42-2.46,2.93-4.92,4.26-7.47a3.49,3.49,0,0,1,3.59-2.08C36.1,21.58,44.7,21.58,53.4,21.58Z" fill="url(#Degradado_sin_nombre_2)"/><path d="M92.46,91c2.17,0,4.35-.1,6.52,0a3.38,3.38,0,0,0,3.31-1.89C109.48,76.52,116.76,64,124,51.46c1.32-2.27,2.55-4.54,4-6.81,1.13-1.89,1.79-1.89,2.83-.18,2,3.21,3.88,6.61,5.77,9.92a1.85,1.85,0,0,1-.09,2.08c-6.53,11.26-13.05,22.42-19.58,33.67-2.17,3.78-4.44,7.47-6.43,11.35a4.17,4.17,0,0,1-4.44,2.64c-4.16-.19-8.23,0-12.39-.09-1.8,0-2,.38-1.23,2.08,1.14,2.36,2.65,3,5.2,2.93,4-.19,8-.09,11.92,0a3.13,3.13,0,0,0,3.12-1.8L133,71.79c1.8-3.12,3.69-6.24,5.39-9.36.85-1.51,1.8-1.51,2.65,0,2,3.31,3.88,6.62,5.77,9.93a2.44,2.44,0,0,1-.28,2.74c-5.3,9-10.5,18.06-15.7,27.05-3.41,5.86-6.81,11.63-10.12,17.59a4.89,4.89,0,0,1-5,2.93c-3.88-.19-7.85,0-11.73-.1a3.5,3.5,0,0,0-3.68,2.27C98.6,128,96.81,131,95,134c-.85,1.52-1.51,1.52-2.46,0Q81.21,114.3,69.86,94.58c-1.23-2.17-2.56-4.44-3.79-6.62a2.77,2.77,0,0,1,0-2.93c2.18-3.5,4.35-7,6.43-10.59.76-1.23,1.8-1.42,3.13-1.42,4.06,0,8.13-.09,12.19,0a4,4,0,0,0,4.07-2.46C99.08,58,106.26,45.41,113.54,32.93c1.33-2.37,2.75-4.63,4.07-7,.76-1.32,1.51-1.32,2.27,0,2,3.41,3.88,6.72,6,10.12.75,1.23.09,2.08-.48,3.12-6.62,11.35-13.14,22.69-19.76,34-2,3.41-4,6.9-5.86,10.4a4.34,4.34,0,0,1-4.45,2.65c-4.16-.19-8.22,0-12.38-.09-1.33,0-2.08-.1-1.23,1.79,1.13,2.37,2.55,3.5,5.2,3.12A55.5,55.5,0,0,1,92.46,91Z" fill="url(#Degradado_sin_nombre_3-2)"/></svg>